<svg id="svg" version="1.1" xmlns="http://www.w3.org/2000/svg" xmlns:xlink="http://www.w3.org/1999/xlink" width="400" height="400" viewBox="0, 0, 400,400"><g id="svgg"><path id="path0" d="M75.077 122.300 C 74.879 122.647,75.355 156.342,76.063 192.200 C 76.780 228.492,76.701 239.501,75.598 256.800 C 75.380 260.210,75.137 266.015,75.057 269.700 L 74.912 276.400 90.919 276.400 L 106.927 276.400 106.650 267.100 C 106.044 246.717,105.656 227.433,105.846 227.125 C 105.957 226.946,109.592 226.786,113.924 226.768 C 134.500 226.685,142.322 225.326,153.600 219.877 C 162.331 215.659,172.176 207.217,175.204 201.352 C 175.531 200.718,175.889 200.110,175.999 200.000 C 176.219 199.781,176.637 199.025,177.877 196.600 C 178.636 195.115,179.032 194.221,179.960 191.900 C 184.735 179.950,185.165 158.517,180.837 148.200 C 179.366 144.694,176.523 139.775,175.022 138.140 C 169.324 131.935,164.155 128.157,158.000 125.699 C 157.450 125.479,156.497 125.097,155.881 124.850 C 155.266 124.602,154.408 124.400,153.976 124.400 C 153.543 124.400,152.877 124.236,152.495 124.035 C 151.838 123.690,150.720 123.452,144.976 122.431 C 142.183 121.934,75.356 121.809,75.077 122.300 M207.343 122.604 C 207.212 122.945,207.227 123.804,207.377 124.512 C 207.526 125.221,207.817 136.780,208.023 150.200 C 208.230 163.620,208.609 185.850,208.867 199.600 C 209.442 230.236,209.442 230.512,208.862 243.600 C 208.604 249.430,208.233 258.700,208.038 264.200 C 207.844 269.700,207.556 274.695,207.399 275.300 L 207.113 276.400 223.419 276.400 L 239.725 276.400 239.452 270.300 C 239.302 266.945,239.010 256.730,238.802 247.600 C 238.595 238.470,238.311 229.726,238.172 228.169 C 237.780 223.786,237.152 224.000,250.380 224.000 C 259.514 224.000,261.587 224.102,261.975 224.570 C 262.235 224.883,263.629 227.448,265.072 230.270 C 268.655 237.272,271.676 243.042,272.889 245.200 C 273.446 246.190,274.419 247.990,275.051 249.200 C 275.683 250.410,276.290 251.490,276.400 251.600 C 276.510 251.710,276.977 252.520,277.438 253.400 C 277.900 254.280,278.691 255.720,279.197 256.600 C 279.704 257.480,280.665 259.190,281.335 260.400 C 282.575 262.643,286.232 269.070,287.707 271.600 C 288.156 272.370,288.900 273.699,289.362 274.554 C 289.823 275.409,290.830 276.578,291.600 277.152 C 292.370 277.726,293.117 278.358,293.260 278.557 C 293.517 278.913,295.508 278.772,301.000 278.008 C 305.831 277.335,308.542 276.876,310.300 276.430 C 311.235 276.194,312.765 275.807,313.700 275.571 C 314.635 275.335,315.987 275.045,316.704 274.927 C 317.421 274.808,318.106 274.551,318.227 274.356 C 318.348 274.160,318.799 274.000,319.229 274.000 C 319.659 274.000,320.323 273.838,320.705 273.639 C 321.087 273.440,322.146 273.058,323.059 272.789 C 325.480 272.074,326.434 269.459,324.888 267.775 C 324.131 266.952,315.860 255.559,313.587 252.209 C 312.844 251.114,312.007 249.944,311.726 249.609 C 309.537 246.999,288.800 215.725,288.800 215.035 C 288.800 214.494,291.654 212.400,292.391 212.400 C 292.616 212.400,292.800 212.259,292.800 212.086 C 292.800 211.914,293.295 211.475,293.900 211.111 C 302.063 206.202,311.365 193.823,314.720 183.400 C 316.625 177.484,317.200 173.683,317.200 167.013 C 317.200 157.795,315.100 148.588,311.769 143.200 C 311.429 142.650,311.051 141.885,310.929 141.500 C 310.807 141.115,310.548 140.800,310.353 140.800 C 310.159 140.800,310.000 140.622,310.000 140.405 C 310.000 139.436,304.438 133.592,301.223 131.183 C 298.515 129.154,293.406 126.443,290.600 125.547 C 289.720 125.267,288.829 124.893,288.620 124.718 C 288.411 124.543,287.747 124.400,287.144 124.400 C 286.541 124.400,285.951 124.244,285.833 124.054 C 285.716 123.864,284.850 123.578,283.910 123.419 C 282.969 123.259,281.120 122.941,279.800 122.711 C 275.430 121.948,207.633 121.848,207.343 122.604 M130.800 145.808 C 131.790 145.938,132.960 146.195,133.400 146.377 C 133.840 146.560,134.952 146.934,135.871 147.209 C 145.811 150.183,150.768 158.239,150.791 171.456 C 150.820 187.458,144.443 197.501,130.910 202.767 C 128.739 203.612,125.354 203.575,110.133 202.542 C 105.651 202.237,106.101 204.232,106.446 186.200 C 106.601 178.060,106.744 165.970,106.764 159.333 C 106.808 144.598,106.325 146.007,111.343 145.970 C 113.574 145.954,116.210 145.788,117.200 145.601 C 119.046 145.254,127.582 145.383,130.800 145.808 M262.093 145.656 C 276.786 147.961,283.292 155.649,283.367 170.800 C 283.441 185.601,276.731 195.900,264.381 199.944 C 262.372 200.602,239.653 199.510,239.127 198.731 C 238.793 198.235,238.890 188.946,239.549 158.000 L 239.800 146.200 245.538 145.928 C 248.694 145.779,251.379 145.554,251.505 145.428 C 251.905 145.029,259.075 145.183,262.093 145.656 " stroke="none" fill="#fbfbfc" fill-rule="evenodd"></path><path id="path1" d="M30.300 0.290 C 29.475 0.377,28.800 0.617,28.800 0.824 C 28.800 1.031,28.260 1.200,27.600 1.200 C 26.940 1.200,26.400 1.380,26.400 1.600 C 26.400 1.820,25.860 2.000,25.200 2.000 C 24.540 2.000,24.000 2.180,24.000 2.400 C 24.000 2.620,23.640 2.800,23.200 2.800 C 22.760 2.800,22.400 2.980,22.400 3.200 C 22.400 3.420,22.040 3.600,21.600 3.600 C 21.160 3.600,20.800 3.780,20.800 4.000 C 20.800 4.220,20.440 4.400,20.000 4.400 C 19.560 4.400,19.200 4.550,19.200 4.732 C 19.200 4.915,18.705 5.319,18.100 5.630 C 17.495 5.940,16.709 6.511,16.353 6.897 C 15.997 7.284,15.488 7.600,15.221 7.600 C 14.587 7.600,7.600 14.587,7.600 15.221 C 7.600 15.488,7.284 15.997,6.897 16.353 C 6.511 16.709,5.940 17.495,5.630 18.100 C 5.319 18.705,4.915 19.200,4.732 19.200 C 4.550 19.200,4.400 19.560,4.400 20.000 C 4.400 20.440,4.220 20.800,4.000 20.800 C 3.780 20.800,3.600 21.160,3.600 21.600 C 3.600 22.040,3.420 22.400,3.200 22.400 C 2.980 22.400,2.800 22.760,2.800 23.200 C 2.800 23.640,2.620 24.000,2.400 24.000 C 2.180 24.000,2.000 24.540,2.000 25.200 C 2.000 25.860,1.820 26.400,1.600 26.400 C 1.380 26.400,1.200 26.814,1.200 27.320 C 1.200 27.826,0.975 28.465,0.700 28.740 C -0.036 29.476,-0.036 370.855,0.700 371.100 C 0.975 371.192,1.200 371.781,1.200 372.410 C 1.200 373.038,1.380 373.664,1.600 373.800 C 1.820 373.936,2.000 374.487,2.000 375.024 C 2.000 375.561,2.180 376.000,2.400 376.000 C 2.620 376.000,2.800 376.360,2.800 376.800 C 2.800 377.240,2.980 377.600,3.200 377.600 C 3.420 377.600,3.600 377.960,3.600 378.400 C 3.600 378.840,3.780 379.200,4.000 379.200 C 4.220 379.200,4.400 379.560,4.400 380.000 C 4.400 380.440,4.550 380.800,4.732 380.800 C 4.915 380.800,5.319 381.295,5.630 381.900 C 5.940 382.505,6.511 383.291,6.897 383.647 C 7.284 384.003,7.600 384.506,7.600 384.766 C 7.600 385.437,14.487 392.395,15.153 392.398 C 15.457 392.399,15.997 392.716,16.353 393.103 C 16.709 393.489,17.495 394.060,18.100 394.370 C 18.705 394.681,19.200 395.085,19.200 395.268 C 19.200 395.450,19.560 395.600,20.000 395.600 C 20.440 395.600,20.800 395.780,20.800 396.000 C 20.800 396.220,21.160 396.400,21.600 396.400 C 22.040 396.400,22.400 396.580,22.400 396.800 C 22.400 397.020,22.760 397.200,23.200 397.200 C 23.640 397.200,24.000 397.380,24.000 397.600 C 24.000 397.820,24.540 398.000,25.200 398.000 C 25.860 398.000,26.400 398.180,26.400 398.400 C 26.400 398.620,26.814 398.800,27.320 398.800 C 27.826 398.800,28.465 399.025,28.740 399.300 C 29.476 400.036,371.255 400.036,371.500 399.300 C 371.592 399.025,372.102 398.800,372.633 398.800 C 373.165 398.800,373.600 398.620,373.600 398.400 C 373.600 398.180,374.140 398.000,374.800 398.000 C 375.460 398.000,376.000 397.820,376.000 397.600 C 376.000 397.380,376.360 397.200,376.800 397.200 C 377.240 397.200,377.600 397.020,377.600 396.800 C 377.600 396.580,377.960 396.400,378.400 396.400 C 378.840 396.400,379.200 396.220,379.200 396.000 C 379.200 395.780,379.560 395.600,380.000 395.600 C 380.440 395.600,380.800 395.450,380.800 395.268 C 380.800 395.085,381.295 394.681,381.900 394.370 C 382.505 394.060,383.291 393.489,383.647 393.103 C 384.003 392.716,384.503 392.400,384.758 392.400 C 385.763 392.400,392.400 385.763,392.400 384.758 C 392.400 384.503,392.716 384.003,393.103 383.647 C 393.489 383.291,394.060 382.505,394.370 381.900 C 394.681 381.295,395.085 380.800,395.268 380.800 C 395.450 380.800,395.600 380.440,395.600 380.000 C 395.600 379.560,395.780 379.200,396.000 379.200 C 396.220 379.200,396.400 378.840,396.400 378.400 C 396.400 377.960,396.580 377.600,396.800 377.600 C 397.020 377.600,397.200 377.240,397.200 376.800 C 397.200 376.360,397.380 376.000,397.600 376.000 C 397.820 376.000,398.000 375.561,398.000 375.024 C 398.000 374.487,398.180 373.936,398.400 373.800 C 398.620 373.664,398.800 373.038,398.800 372.410 C 398.800 371.781,399.025 371.192,399.300 371.100 C 400.036 370.855,400.036 29.476,399.300 28.740 C 399.025 28.465,398.800 27.826,398.800 27.320 C 398.800 26.814,398.620 26.400,398.400 26.400 C 398.180 26.400,398.000 25.860,398.000 25.200 C 398.000 24.540,397.820 24.000,397.600 24.000 C 397.380 24.000,397.200 23.640,397.200 23.200 C 397.200 22.760,397.020 22.400,396.800 22.400 C 396.580 22.400,396.400 22.040,396.400 21.600 C 396.400 21.160,396.220 20.800,396.000 20.800 C 395.780 20.800,395.600 20.440,395.600 20.000 C 395.600 19.560,395.450 19.200,395.268 19.200 C 395.085 19.200,394.681 18.705,394.370 18.100 C 394.060 17.495,393.489 16.709,393.103 16.353 C 392.716 15.997,392.399 15.457,392.398 15.153 C 392.395 14.487,385.437 7.600,384.766 7.600 C 384.506 7.600,384.003 7.284,383.647 6.897 C 383.291 6.511,382.505 5.940,381.900 5.630 C 381.295 5.319,380.800 4.915,380.800 4.732 C 380.800 4.550,380.440 4.400,380.000 4.400 C 379.560 4.400,379.200 4.220,379.200 4.000 C 379.200 3.780,378.840 3.600,378.400 3.600 C 377.960 3.600,377.600 3.420,377.600 3.200 C 377.600 2.980,377.240 2.800,376.800 2.800 C 376.360 2.800,376.000 2.620,376.000 2.400 C 376.000 2.180,375.561 2.000,375.024 2.000 C 374.487 2.000,373.936 1.820,373.800 1.600 C 373.664 1.380,373.149 1.200,372.656 1.200 C 372.163 1.200,371.535 0.975,371.260 0.700 C 370.787 0.227,34.721 -0.177,30.300 0.290 M144.000 121.531 C 145.650 121.762,147.990 122.149,149.200 122.392 C 150.410 122.635,151.987 122.936,152.704 123.061 C 153.421 123.186,154.106 123.449,154.227 123.644 C 154.348 123.840,154.799 124.000,155.229 124.000 C 155.659 124.000,156.323 124.159,156.705 124.353 C 157.378 124.696,157.950 124.941,160.700 126.064 C 161.415 126.356,162.000 126.731,162.000 126.898 C 162.000 127.064,162.279 127.200,162.621 127.200 C 164.469 127.200,172.710 133.981,176.018 138.225 C 179.535 142.736,182.486 149.220,183.562 154.800 C 183.796 156.010,184.170 157.954,184.393 159.120 C 185.474 164.751,184.501 178.435,182.440 186.600 C 182.218 187.480,181.916 188.698,181.770 189.306 C 181.624 189.914,181.346 190.510,181.152 190.630 C 180.959 190.749,180.800 191.180,180.800 191.586 C 180.800 192.284,180.360 193.306,178.340 197.300 C 177.868 198.235,177.283 199.404,177.040 199.897 C 176.798 200.390,176.465 200.795,176.300 200.797 C 176.135 200.799,176.000 201.070,176.000 201.400 C 176.000 201.730,175.820 202.000,175.600 202.000 C 175.380 202.000,175.200 202.191,175.200 202.423 C 175.200 205.659,160.433 218.025,152.727 221.243 C 151.557 221.731,150.429 222.281,150.220 222.465 C 150.011 222.649,149.514 222.800,149.115 222.800 C 148.716 222.800,148.032 222.980,147.595 223.200 C 147.158 223.420,146.442 223.780,146.005 224.000 C 145.568 224.220,144.769 224.400,144.229 224.400 C 143.689 224.400,143.136 224.580,143.000 224.800 C 142.864 225.020,142.144 225.200,141.400 225.200 C 140.656 225.200,139.936 225.380,139.800 225.600 C 139.664 225.820,138.789 226.000,137.856 226.000 C 136.923 226.000,135.989 226.165,135.780 226.368 C 135.178 226.950,130.667 227.224,118.056 227.442 L 106.313 227.645 106.560 236.522 C 107.044 253.900,107.461 276.205,107.308 276.500 C 107.223 276.665,99.672 276.800,90.528 276.800 L 73.903 276.800 74.163 271.700 C 75.087 253.527,75.306 243.609,75.312 219.600 C 75.316 204.750,75.087 181.080,74.804 167.000 C 74.522 152.920,74.270 136.900,74.245 131.400 L 74.200 121.400 82.000 121.183 C 95.112 120.817,140.734 121.073,144.000 121.531 M276.800 121.538 C 278.450 121.770,280.790 122.144,282.000 122.369 C 283.210 122.594,284.877 122.893,285.704 123.033 C 286.531 123.174,287.306 123.449,287.427 123.644 C 287.548 123.840,287.999 124.000,288.429 124.000 C 288.859 124.000,289.523 124.159,289.905 124.353 C 290.287 124.548,291.050 124.886,291.600 125.104 C 297.642 127.507,301.693 130.103,305.796 134.200 C 309.743 138.142,311.221 140.196,313.419 144.800 C 313.997 146.010,314.634 147.313,314.835 147.695 C 315.036 148.077,315.200 148.716,315.200 149.115 C 315.200 149.514,315.349 150.011,315.530 150.220 C 318.722 153.890,318.736 176.990,315.551 183.295 C 315.358 183.677,315.200 184.264,315.200 184.600 C 315.200 184.936,315.038 185.523,314.841 185.905 C 314.643 186.287,313.710 188.220,312.768 190.200 C 311.826 192.180,310.952 193.890,310.827 194.000 C 310.701 194.110,310.344 194.695,310.032 195.300 C 309.720 195.905,309.315 196.400,309.132 196.400 C 308.950 196.400,308.797 196.625,308.793 196.900 C 308.779 197.858,302.567 205.083,299.593 207.601 C 298.424 208.590,297.240 209.625,296.962 209.900 C 296.685 210.175,296.279 210.400,296.062 210.400 C 295.845 210.400,295.607 210.553,295.533 210.739 C 295.460 210.926,294.095 211.942,292.500 212.998 C 289.177 215.197,289.292 214.961,290.600 216.886 C 291.150 217.695,291.600 218.547,291.600 218.779 C 291.600 219.010,291.780 219.200,292.000 219.200 C 292.220 219.200,292.400 219.470,292.400 219.800 C 292.400 220.130,292.580 220.400,292.800 220.400 C 293.020 220.400,293.200 220.670,293.200 221.000 C 293.200 221.330,293.350 221.600,293.532 221.600 C 293.715 221.600,294.120 222.095,294.432 222.700 C 294.745 223.305,295.315 224.149,295.700 224.575 C 296.085 225.002,296.400 225.572,296.400 225.842 C 296.400 226.112,296.561 226.393,296.758 226.467 C 296.955 226.540,297.450 227.169,297.858 227.864 C 299.058 229.908,306.510 240.952,307.079 241.529 C 307.365 241.819,307.600 242.196,307.600 242.366 C 307.600 242.536,308.050 243.199,308.600 243.838 C 309.149 244.477,309.599 245.210,309.600 245.467 C 309.600 245.723,309.745 245.993,309.923 246.067 C 310.101 246.140,310.854 247.100,311.597 248.200 C 312.340 249.300,313.064 250.290,313.206 250.400 C 313.348 250.510,314.391 251.950,315.523 253.600 C 317.898 257.061,321.383 261.921,322.127 262.809 C 322.407 263.144,323.246 264.314,323.992 265.409 C 324.737 266.504,325.476 267.490,325.634 267.600 C 327.620 268.987,325.413 273.600,322.762 273.600 C 322.369 273.600,321.936 273.780,321.800 274.000 C 321.664 274.220,321.124 274.400,320.600 274.400 C 320.076 274.400,319.536 274.580,319.400 274.800 C 319.264 275.020,318.634 275.200,318.000 275.200 C 317.366 275.200,316.748 275.360,316.627 275.556 C 316.506 275.751,315.821 276.008,315.104 276.127 C 314.387 276.245,312.990 276.550,312.000 276.804 C 311.010 277.057,309.480 277.351,308.600 277.455 C 307.720 277.560,306.640 277.806,306.200 278.002 C 304.245 278.873,294.097 279.582,292.762 278.941 C 291.401 278.289,288.800 275.674,288.800 274.960 C 288.800 274.652,288.620 274.400,288.400 274.400 C 288.180 274.400,288.000 274.234,288.000 274.032 C 288.000 273.829,287.077 272.074,285.949 270.132 C 283.297 265.567,282.782 264.651,281.374 262.000 C 280.732 260.790,280.115 259.710,280.003 259.600 C 279.891 259.490,279.395 258.635,278.900 257.700 C 278.405 256.765,277.595 255.235,277.100 254.300 C 276.605 253.365,276.110 252.510,276.000 252.400 C 275.890 252.290,275.423 251.480,274.962 250.600 C 274.500 249.720,273.756 248.356,273.308 247.570 C 271.526 244.446,268.066 237.881,264.996 231.800 L 261.764 225.400 250.439 225.294 L 239.113 225.187 239.359 237.294 C 239.494 243.952,239.713 255.565,239.845 263.100 L 240.085 276.800 223.407 276.800 L 206.730 276.800 206.950 270.500 C 207.071 267.035,207.383 259.610,207.643 254.000 C 208.271 240.479,208.254 205.359,207.604 174.200 C 207.316 160.340,207.061 142.790,207.040 135.200 L 207.000 121.400 214.800 121.181 C 227.872 120.815,273.524 121.078,276.800 121.538 M116.400 146.430 C 112.990 146.575,109.642 146.824,108.961 146.985 L 107.722 147.276 107.461 153.301 C 107.219 158.893,107.077 201.560,107.300 201.633 C 107.355 201.651,110.460 201.826,114.200 202.021 C 117.940 202.217,122.710 202.493,124.800 202.634 C 131.467 203.084,139.885 198.515,144.393 192.000 C 144.926 191.230,145.463 190.510,145.586 190.400 C 149.797 186.652,151.333 167.841,148.132 159.228 C 146.234 154.120,139.414 148.000,135.620 148.000 C 135.195 148.000,134.736 147.820,134.600 147.600 C 134.464 147.380,133.902 147.200,133.350 147.200 C 132.799 147.200,132.044 147.044,131.674 146.854 C 130.662 146.335,123.383 146.133,116.400 146.430 M249.200 146.437 C 245.790 146.588,242.328 146.845,241.506 147.008 L 240.012 147.303 239.906 172.551 C 239.848 186.438,239.896 197.932,240.013 198.093 C 240.130 198.254,245.332 198.674,251.574 199.027 L 262.923 199.668 265.561 198.550 C 277.575 193.463,283.379 183.502,282.663 169.200 C 282.368 163.325,281.497 160.028,279.176 156.001 C 277.410 152.938,270.486 148.000,267.957 148.000 C 267.567 148.000,267.136 147.820,267.000 147.600 C 266.864 147.380,266.302 147.200,265.750 147.200 C 265.199 147.200,264.444 147.045,264.074 146.855 C 263.042 146.326,256.089 146.130,249.200 146.437 " stroke="none" fill="#048cfc" fill-rule="evenodd"></path><path id="path2" d="M99.327 121.500 C 103.907 121.564,111.287 121.564,115.727 121.499 C 120.167 121.435,116.420 121.383,107.400 121.383 C 98.380 121.383,94.747 121.435,99.327 121.500 M136.707 121.490 C 137.426 121.579,138.506 121.577,139.107 121.486 C 139.708 121.395,139.120 121.322,137.800 121.324 C 136.480 121.326,135.988 121.401,136.707 121.490 M232.127 121.500 C 236.707 121.564,244.087 121.564,248.527 121.499 C 252.967 121.435,249.220 121.383,240.200 121.383 C 231.180 121.383,227.547 121.435,232.127 121.500 M269.507 121.490 C 270.226 121.579,271.306 121.577,271.907 121.486 C 272.508 121.395,271.920 121.322,270.600 121.324 C 269.280 121.326,268.788 121.401,269.507 121.490 M142.100 121.876 C 142.485 121.976,143.115 121.976,143.500 121.876 C 143.885 121.775,143.570 121.693,142.800 121.693 C 142.030 121.693,141.715 121.775,142.100 121.876 M206.972 122.128 C 206.861 122.419,206.823 124.444,206.888 126.628 L 207.006 130.600 207.203 126.099 C 207.398 121.645,207.366 121.101,206.972 122.128 M274.900 121.876 C 275.285 121.976,275.915 121.976,276.300 121.876 C 276.685 121.775,276.370 121.693,275.600 121.693 C 274.830 121.693,274.515 121.775,274.900 121.876 M74.550 135.400 C 74.551 137.820,74.616 138.758,74.696 137.485 C 74.776 136.212,74.775 134.232,74.694 133.085 C 74.614 131.938,74.549 132.980,74.550 135.400 M305.400 134.400 C 306.706 135.720,307.865 136.800,307.975 136.800 C 308.085 136.800,307.106 135.720,305.800 134.400 C 304.494 133.080,303.335 132.000,303.225 132.000 C 303.115 132.000,304.094 133.080,305.400 134.400 M207.348 142.800 C 207.348 145.110,207.414 146.055,207.495 144.900 C 207.576 143.745,207.576 141.855,207.495 140.700 C 207.414 139.545,207.348 140.490,207.348 142.800 M120.500 145.876 C 120.885 145.976,121.515 145.976,121.900 145.876 C 122.285 145.775,121.970 145.693,121.200 145.693 C 120.430 145.693,120.115 145.775,120.500 145.876 M125.300 145.876 C 125.685 145.976,126.315 145.976,126.700 145.876 C 127.085 145.775,126.770 145.693,126.000 145.693 C 125.230 145.693,124.915 145.775,125.300 145.876 M253.300 145.876 C 253.685 145.976,254.315 145.976,254.700 145.876 C 255.085 145.775,254.770 145.693,254.000 145.693 C 253.230 145.693,252.915 145.775,253.300 145.876 M257.700 145.876 C 258.085 145.976,258.715 145.976,259.100 145.876 C 259.485 145.775,259.170 145.693,258.400 145.693 C 257.630 145.693,257.315 145.775,257.700 145.876 M112.300 146.289 C 113.015 146.378,114.185 146.378,114.900 146.289 C 115.615 146.201,115.030 146.128,113.600 146.128 C 112.170 146.128,111.585 146.201,112.300 146.289 M245.100 146.289 C 245.815 146.378,246.985 146.378,247.700 146.289 C 248.415 146.201,247.830 146.128,246.400 146.128 C 244.970 146.128,244.385 146.201,245.100 146.289 M74.968 163.000 C 74.968 167.400,75.026 169.255,75.098 167.121 C 75.170 164.988,75.170 161.388,75.099 159.121 C 75.027 156.855,74.968 158.600,74.968 163.000 M239.774 166.800 C 239.774 172.410,239.830 174.705,239.899 171.900 C 239.968 169.095,239.968 164.505,239.899 161.700 C 239.830 158.895,239.774 161.190,239.774 166.800 M207.770 166.000 C 207.770 170.730,207.828 172.665,207.898 170.300 C 207.969 167.935,207.969 164.065,207.898 161.700 C 207.828 159.335,207.770 161.270,207.770 166.000 M317.737 167.400 C 317.739 169.160,317.809 169.830,317.893 168.889 C 317.978 167.949,317.977 166.509,317.891 165.689 C 317.805 164.870,317.736 165.640,317.737 167.400 M282.951 171.200 C 282.951 173.730,283.016 174.765,283.096 173.500 C 283.175 172.235,283.175 170.165,283.096 168.900 C 283.016 167.635,282.951 168.670,282.951 171.200 M106.975 179.200 C 106.975 185.030,107.031 187.415,107.099 184.500 C 107.167 181.585,107.167 176.815,107.099 173.900 C 107.031 170.985,106.975 173.370,106.975 179.200 M184.101 173.400 C 184.105 174.280,184.187 174.593,184.283 174.095 C 184.379 173.598,184.375 172.878,184.275 172.495 C 184.175 172.113,184.096 172.520,184.101 173.400 M75.346 180.600 C 75.347 182.800,75.414 183.649,75.495 182.487 C 75.576 181.324,75.576 179.524,75.493 178.487 C 75.411 177.449,75.345 178.400,75.346 180.600 M208.150 186.600 C 208.151 189.020,208.216 189.958,208.296 188.685 C 208.376 187.412,208.375 185.432,208.294 184.285 C 208.214 183.138,208.149 184.180,208.150 186.600 M239.276 191.876 C 239.234 195.438,239.335 198.437,239.500 198.539 C 239.665 198.642,239.753 196.718,239.695 194.263 C 239.505 186.172,239.352 185.304,239.276 191.876 M275.375 192.500 L 274.200 193.800 275.500 192.625 C 276.215 191.979,276.800 191.394,276.800 191.325 C 276.800 191.016,276.470 191.288,275.375 192.500 M106.454 198.876 C 106.425 200.348,106.535 201.636,106.700 201.739 C 106.865 201.841,106.948 200.997,106.884 199.862 C 106.694 196.453,106.512 196.037,106.454 198.876 M241.900 199.082 C 242.395 199.178,243.205 199.178,243.700 199.082 C 244.195 198.987,243.790 198.909,242.800 198.909 C 241.810 198.909,241.405 198.987,241.900 199.082 M75.768 207.000 C 75.768 211.400,75.826 213.255,75.898 211.121 C 75.970 208.988,75.970 205.388,75.899 203.121 C 75.827 200.855,75.768 202.600,75.768 207.000 M251.705 199.487 C 252.314 199.579,253.214 199.577,253.705 199.482 C 254.197 199.387,253.700 199.311,252.600 199.314 C 251.500 199.317,251.097 199.395,251.705 199.487 M256.300 199.882 C 256.795 199.978,257.605 199.978,258.100 199.882 C 258.595 199.787,258.190 199.709,257.200 199.709 C 256.210 199.709,255.805 199.787,256.300 199.882 M175.753 200.900 C 174.376 203.236,174.286 203.435,174.987 202.600 C 175.800 201.632,176.500 200.400,176.238 200.400 C 176.133 200.400,175.915 200.625,175.753 200.900 M108.905 202.287 C 109.514 202.379,110.414 202.377,110.905 202.282 C 111.397 202.187,110.900 202.111,109.800 202.114 C 108.700 202.117,108.297 202.195,108.905 202.287 M117.500 202.682 C 117.995 202.778,118.805 202.778,119.300 202.682 C 119.795 202.587,119.390 202.509,118.400 202.509 C 117.410 202.509,117.005 202.587,117.500 202.682 M122.505 203.087 C 123.114 203.179,124.014 203.177,124.505 203.082 C 124.997 202.987,124.500 202.911,123.400 202.914 C 122.300 202.917,121.897 202.995,122.505 203.087 M302.575 204.100 L 301.400 205.400 302.700 204.225 C 303.415 203.579,304.000 202.994,304.000 202.925 C 304.000 202.616,303.670 202.888,302.575 204.100 M299.775 206.900 L 298.600 208.200 299.900 207.025 C 300.615 206.379,301.200 205.794,301.200 205.725 C 301.200 205.416,300.870 205.688,299.775 206.900 M208.569 214.400 C 208.569 218.910,208.627 220.755,208.698 218.500 C 208.770 216.245,208.770 212.555,208.698 210.300 C 208.627 208.045,208.569 209.890,208.569 214.400 M76.146 224.600 C 76.147 226.800,76.214 227.649,76.295 226.487 C 76.376 225.324,76.376 223.524,76.293 222.487 C 76.211 221.449,76.145 222.400,76.146 224.600 M238.880 224.880 C 238.616 225.144,238.427 226.089,238.460 226.980 L 238.520 228.600 238.760 226.800 L 239.000 225.000 250.151 224.894 C 258.673 224.812,261.456 224.907,261.951 225.294 C 262.528 225.744,262.539 225.722,262.051 225.100 C 261.357 224.215,239.750 224.010,238.880 224.880 M126.500 227.076 C 126.885 227.176,127.515 227.176,127.900 227.076 C 128.285 226.975,127.970 226.893,127.200 226.893 C 126.430 226.893,126.115 226.975,126.500 227.076 M106.142 231.000 C 106.141 232.980,106.208 233.840,106.292 232.912 C 106.376 231.984,106.377 230.364,106.295 229.312 C 106.212 228.260,106.143 229.020,106.142 231.000 M208.909 229.600 C 208.909 230.590,208.987 230.995,209.082 230.500 C 209.178 230.005,209.178 229.195,209.082 228.700 C 208.987 228.205,208.909 228.610,208.909 229.600 M238.950 235.000 C 238.951 237.420,239.016 238.358,239.096 237.085 C 239.176 235.812,239.175 233.832,239.094 232.685 C 239.014 231.538,238.949 232.580,238.950 235.000 M76.109 232.800 C 76.109 233.790,76.187 234.195,76.282 233.700 C 76.378 233.205,76.378 232.395,76.282 231.900 C 76.187 231.405,76.109 231.810,76.109 232.800 M208.540 237.200 C 208.540 239.070,208.609 239.835,208.693 238.900 C 208.777 237.965,208.777 236.435,208.693 235.500 C 208.609 234.565,208.540 235.330,208.540 237.200 M75.742 240.200 C 75.741 242.180,75.808 243.040,75.892 242.112 C 75.976 241.184,75.977 239.564,75.895 238.512 C 75.812 237.460,75.743 238.220,75.742 240.200 M208.114 249.000 C 208.117 250.100,208.195 250.503,208.287 249.895 C 208.379 249.286,208.377 248.386,208.282 247.895 C 208.187 247.403,208.111 247.900,208.114 249.000 M106.534 251.600 C 106.534 253.250,106.605 253.925,106.691 253.100 C 106.778 252.275,106.778 250.925,106.691 250.100 C 106.605 249.275,106.534 249.950,106.534 251.600 M75.309 251.600 C 75.309 252.590,75.387 252.995,75.482 252.500 C 75.578 252.005,75.578 251.195,75.482 250.700 C 75.387 250.205,75.309 250.610,75.309 251.600 M239.340 255.200 C 239.340 257.070,239.409 257.835,239.493 256.900 C 239.577 255.965,239.577 254.435,239.493 253.500 C 239.409 252.565,239.340 253.330,239.340 255.200 M207.742 257.800 C 207.741 259.780,207.808 260.640,207.892 259.712 C 207.976 258.784,207.977 257.164,207.895 256.112 C 207.812 255.060,207.743 255.820,207.742 257.800 M74.942 259.000 C 74.941 260.980,75.008 261.840,75.092 260.912 C 75.176 259.984,75.177 258.364,75.095 257.312 C 75.012 256.260,74.943 257.020,74.942 259.000 M106.954 262.000 C 106.954 264.750,107.018 265.875,107.096 264.500 C 107.174 263.125,107.174 260.875,107.096 259.500 C 107.018 258.125,106.954 259.250,106.954 262.000 M239.754 267.200 C 239.754 269.950,239.818 271.075,239.896 269.700 C 239.974 268.325,239.974 266.075,239.896 264.700 C 239.818 263.325,239.754 264.450,239.754 267.200 M207.314 267.800 C 207.317 268.900,207.395 269.303,207.487 268.695 C 207.579 268.086,207.577 267.186,207.482 266.695 C 207.387 266.203,207.311 266.700,207.314 267.800 M74.509 270.800 C 74.509 271.790,74.587 272.195,74.682 271.700 C 74.778 271.205,74.778 270.395,74.682 269.900 C 74.587 269.405,74.509 269.810,74.509 270.800 M206.957 274.569 C 206.987 275.954,207.178 276.585,207.600 276.699 C 208.015 276.811,208.054 276.757,207.728 276.524 C 207.468 276.339,207.178 275.380,207.085 274.393 L 206.914 272.600 206.957 274.569 M295.705 279.087 C 296.314 279.179,297.214 279.177,297.705 279.082 C 298.197 278.987,297.700 278.911,296.600 278.914 C 295.500 278.917,295.097 278.995,295.705 279.087 " stroke="none" fill="#62b6fc" fill-rule="evenodd"></path><path id="path3" d="M99.333 121.594 C 85.876 121.707,74.772 121.894,74.658 122.009 C 74.543 122.124,74.601 129.684,74.787 138.809 L 75.125 155.400 75.063 138.800 L 75.000 122.200 108.400 122.000 C 128.947 121.877,140.030 121.685,137.200 121.502 C 134.670 121.338,130.620 121.245,128.200 121.296 C 125.780 121.346,112.790 121.481,99.333 121.594 M232.217 121.500 C 218.806 121.558,207.700 121.740,207.537 121.903 C 207.373 122.066,222.396 122.125,240.920 122.034 C 259.532 121.943,272.989 121.738,271.000 121.577 C 269.020 121.416,264.970 121.309,262.000 121.339 C 259.030 121.369,245.628 121.442,232.217 121.500 M144.400 122.400 C 144.950 122.576,145.940 122.720,146.600 122.720 C 147.767 122.720,147.772 122.711,146.800 122.400 C 146.250 122.224,145.260 122.080,144.600 122.080 C 143.433 122.080,143.428 122.089,144.400 122.400 M277.200 122.400 C 277.750 122.576,278.740 122.720,279.400 122.720 C 280.567 122.720,280.572 122.711,279.600 122.400 C 279.050 122.224,278.060 122.080,277.400 122.080 C 276.233 122.080,276.228 122.089,277.200 122.400 M149.400 123.200 C 149.840 123.389,150.560 123.544,151.000 123.544 L 151.800 123.544 151.000 123.200 C 150.560 123.011,149.840 122.856,149.400 122.856 L 148.600 122.856 149.400 123.200 M282.600 123.200 C 283.040 123.389,283.760 123.538,284.200 123.532 C 284.843 123.523,284.804 123.457,284.000 123.200 C 282.632 122.762,281.581 122.762,282.600 123.200 M152.600 124.000 C 152.736 124.220,153.242 124.387,153.724 124.372 C 154.569 124.345,154.571 124.331,153.800 124.000 C 152.699 123.527,152.308 123.527,152.600 124.000 M285.800 124.000 C 285.936 124.220,286.442 124.387,286.924 124.372 C 287.769 124.345,287.771 124.331,287.000 124.000 C 285.899 123.527,285.508 123.527,285.800 124.000 M207.504 141.000 C 207.614 150.020,207.770 157.475,207.852 157.567 C 208.112 157.859,207.914 136.018,207.604 130.200 C 207.435 127.035,207.392 131.732,207.504 141.000 M292.800 126.165 C 292.800 126.256,294.105 126.978,295.700 127.769 C 299.283 129.545,303.133 132.406,305.948 135.383 C 307.125 136.627,308.161 137.572,308.251 137.482 C 308.512 137.222,302.358 131.485,300.298 130.067 C 297.436 128.098,292.800 125.686,292.800 126.165 M161.757 127.294 C 162.174 127.572,164.064 128.808,165.957 130.041 C 168.919 131.969,173.788 136.362,174.829 138.047 C 175.009 138.339,175.266 138.468,175.399 138.334 C 176.218 137.515,166.553 129.424,162.400 127.453 C 161.630 127.088,161.341 127.016,161.757 127.294 M176.585 140.300 C 177.202 141.235,177.777 142.000,177.863 142.000 C 178.196 142.000,176.818 139.713,176.158 139.171 C 175.766 138.848,175.951 139.339,176.585 140.300 M310.809 141.500 C 310.814 141.665,311.185 142.250,311.633 142.800 L 312.448 143.800 311.814 142.500 C 311.211 141.265,310.789 140.845,310.809 141.500 M117.400 145.565 C 116.520 145.704,118.913 145.813,122.717 145.809 C 126.522 145.804,129.222 145.683,128.717 145.540 C 127.561 145.212,119.531 145.230,117.400 145.565 M250.000 145.568 C 249.010 145.704,251.427 145.812,255.370 145.808 C 259.314 145.803,262.014 145.686,261.370 145.547 C 259.888 145.227,252.377 145.241,250.000 145.568 M107.043 146.633 C 106.909 146.981,106.841 152.156,106.890 158.133 L 106.981 169.000 107.190 157.800 L 107.400 146.600 109.400 146.363 L 111.400 146.126 109.343 146.063 C 107.795 146.016,107.225 146.157,107.043 146.633 M131.233 146.144 C 131.705 146.550,133.643 146.793,133.410 146.416 C 133.268 146.187,132.683 146.000,132.110 146.000 C 131.536 146.000,131.142 146.065,131.233 146.144 M239.775 146.522 C 239.664 146.809,239.631 149.284,239.701 152.022 L 239.827 157.000 239.914 151.721 L 240.000 146.442 242.100 146.295 L 244.200 146.148 242.087 146.074 C 240.662 146.024,239.910 146.170,239.775 146.522 M264.400 146.400 C 265.942 146.894,266.764 146.894,266.000 146.400 C 265.670 146.187,264.950 146.027,264.400 146.046 L 263.400 146.080 264.400 146.400 M273.438 149.934 C 274.737 150.778,276.598 152.263,277.572 153.234 C 278.547 154.205,279.093 154.640,278.784 154.200 C 277.400 152.224,272.571 148.400,271.460 148.400 C 271.249 148.400,272.139 149.090,273.438 149.934 M141.200 149.867 C 143.060 151.141,146.617 154.991,147.330 156.500 C 148.052 158.031,148.581 158.566,148.120 157.300 C 147.293 155.027,143.505 150.778,141.400 149.761 C 140.203 149.183,140.203 149.184,141.200 149.867 M314.812 150.400 C 314.812 150.730,314.987 151.270,315.200 151.600 C 315.545 152.133,315.588 152.133,315.588 151.600 C 315.588 151.270,315.413 150.730,315.200 150.400 C 314.855 149.867,314.812 149.867,314.812 150.400 M315.656 153.000 C 315.656 153.440,315.811 154.160,316.000 154.600 L 316.344 155.400 316.344 154.600 C 316.344 154.160,316.189 153.440,316.000 153.000 L 315.656 152.200 315.656 153.000 M183.072 156.200 C 183.199 157.300,183.369 158.275,183.451 158.367 C 183.732 158.682,183.520 156.199,183.180 155.200 C 182.951 154.526,182.916 154.851,183.072 156.200 M280.511 157.656 C 281.220 159.116,281.860 160.256,281.933 160.189 C 282.136 160.003,280.577 156.710,279.856 155.800 C 279.508 155.360,279.802 156.195,280.511 157.656 M316.685 158.400 C 316.807 159.830,316.972 161.075,317.053 161.167 C 317.320 161.470,317.111 158.222,316.785 157.000 C 316.582 156.244,316.546 156.762,316.685 158.400 M183.800 167.443 C 183.799 172.040,183.917 174.810,184.060 173.600 C 184.411 170.644,184.421 162.577,184.077 160.643 C 183.925 159.787,183.800 162.847,183.800 167.443 M149.268 161.000 C 149.262 161.440,149.411 162.160,149.600 162.600 C 150.038 163.619,150.038 162.568,149.600 161.200 C 149.343 160.396,149.277 160.357,149.268 161.000 M282.212 161.800 C 283.146 167.436,283.265 169.099,283.045 173.400 C 282.909 176.040,282.537 179.100,282.218 180.200 C 281.899 181.300,281.534 182.650,281.407 183.200 L 281.177 184.200 281.625 183.200 C 283.498 179.017,284.128 166.427,282.667 162.400 C 282.227 161.188,282.078 160.992,282.212 161.800 M317.353 167.000 C 317.353 169.640,317.418 170.668,317.497 169.284 C 317.575 167.901,317.574 165.741,317.495 164.484 C 317.416 163.228,317.352 164.360,317.353 167.000 M75.516 181.200 C 75.623 190.990,75.775 199.075,75.855 199.167 C 76.111 199.461,75.913 174.803,75.613 169.000 C 75.453 165.920,75.410 171.410,75.516 181.200 M150.294 167.200 C 150.413 169.070,150.575 170.675,150.655 170.767 C 150.929 171.081,150.705 166.200,150.391 165.000 C 150.210 164.310,150.169 165.244,150.294 167.200 M239.048 181.128 C 238.748 199.158,238.753 199.220,240.343 199.160 L 241.400 199.120 240.400 198.840 L 239.400 198.560 239.559 181.480 C 239.647 172.086,239.630 164.400,239.523 164.400 C 239.415 164.400,239.202 171.928,239.048 181.128 M208.322 187.400 C 208.425 197.740,208.575 206.275,208.655 206.367 C 208.898 206.647,208.707 182.228,208.411 175.200 C 208.258 171.570,208.218 177.060,208.322 187.400 M150.287 175.760 C 150.121 177.718,150.063 179.397,150.158 179.491 C 150.421 179.755,150.891 174.753,150.730 173.398 C 150.651 172.739,150.452 173.802,150.287 175.760 M316.670 174.957 C 316.511 176.253,316.461 177.394,316.560 177.493 C 316.826 177.759,317.303 174.218,317.119 173.347 C 317.032 172.936,316.830 173.660,316.670 174.957 M106.575 186.000 C 106.575 191.830,106.631 194.215,106.699 191.300 C 106.767 188.385,106.767 183.615,106.699 180.700 C 106.631 177.785,106.575 180.170,106.575 186.000 M183.046 179.046 C 182.900 180.293,182.859 181.393,182.957 181.490 C 183.054 181.588,183.261 180.654,183.415 179.415 C 183.570 178.177,183.610 177.077,183.505 176.971 C 183.399 176.866,183.193 177.799,183.046 179.046 M315.800 179.600 C 315.650 180.073,315.617 180.550,315.727 180.660 C 315.837 180.770,316.050 180.473,316.200 180.000 C 316.350 179.527,316.383 179.050,316.273 178.940 C 316.163 178.830,315.950 179.127,315.800 179.600 M149.399 181.700 C 148.966 183.831,147.552 187.657,146.503 189.537 C 145.962 190.505,145.696 191.188,145.910 191.056 C 147.062 190.344,150.752 180.400,149.864 180.400 C 149.754 180.400,149.545 180.985,149.399 181.700 M315.000 182.400 C 314.850 182.873,314.817 183.350,314.927 183.460 C 315.037 183.570,315.250 183.273,315.400 182.800 C 315.550 182.327,315.583 181.850,315.473 181.740 C 315.363 181.630,315.150 181.927,315.000 182.400 M182.200 184.000 C 182.048 184.691,182.014 185.347,182.124 185.457 C 182.234 185.567,182.448 185.091,182.600 184.400 C 182.752 183.709,182.786 183.053,182.676 182.943 C 182.566 182.833,182.352 183.309,182.200 184.000 M314.200 184.800 C 314.050 185.273,314.017 185.750,314.127 185.860 C 314.237 185.970,314.450 185.673,314.600 185.200 C 314.750 184.727,314.783 184.250,314.673 184.140 C 314.563 184.030,314.350 184.327,314.200 184.800 M280.622 185.130 C 280.069 186.873,276.982 191.133,274.660 193.357 C 273.307 194.654,272.757 195.336,273.438 194.874 C 276.158 193.028,281.847 185.314,281.066 184.533 C 280.960 184.427,280.760 184.695,280.622 185.130 M181.429 187.029 C 181.281 187.615,181.238 188.172,181.332 188.266 C 181.427 188.360,181.624 187.958,181.771 187.371 C 181.919 186.785,181.962 186.228,181.868 186.134 C 181.773 186.040,181.576 186.442,181.429 187.029 M143.700 193.574 C 142.765 194.660,142.000 195.678,142.000 195.836 C 142.000 196.161,143.634 194.363,144.850 192.700 C 146.090 191.004,145.579 191.393,143.700 193.574 M310.552 192.900 C 310.185 193.615,309.184 195.235,308.327 196.500 C 307.471 197.765,306.860 198.800,306.970 198.800 C 307.235 198.800,310.106 194.547,310.952 192.900 C 311.320 192.185,311.531 191.600,311.421 191.600 C 311.311 191.600,310.920 192.185,310.552 192.900 M177.800 196.800 C 177.459 197.460,177.269 198.000,177.379 198.000 C 177.489 198.000,177.859 197.460,178.200 196.800 C 178.541 196.140,178.731 195.600,178.621 195.600 C 178.511 195.600,178.141 196.140,177.800 196.800 M270.335 196.586 C 269.537 197.128,267.740 198.121,266.342 198.792 C 264.944 199.463,264.250 199.894,264.800 199.749 C 266.097 199.407,270.829 196.913,271.586 196.173 C 272.463 195.315,271.962 195.480,270.335 196.586 M140.370 197.068 L 139.400 198.136 140.487 197.368 C 141.086 196.946,141.581 196.465,141.587 196.300 C 141.608 195.807,141.389 195.946,140.370 197.068 M137.800 199.050 C 137.081 199.662,136.934 199.905,137.433 199.657 C 138.166 199.293,139.541 197.976,139.149 198.014 C 139.067 198.022,138.460 198.488,137.800 199.050 M106.093 200.000 C 106.093 200.770,106.175 201.085,106.276 200.700 C 106.376 200.315,106.376 199.685,106.276 199.300 C 106.175 198.915,106.093 199.230,106.093 200.000 M242.033 199.346 C 242.125 199.426,245.260 199.583,249.000 199.694 C 252.994 199.813,254.645 199.774,253.000 199.598 C 250.068 199.285,241.746 199.094,242.033 199.346 M301.800 204.147 C 297.468 208.575,296.074 209.804,293.900 211.111 C 293.295 211.475,292.800 211.923,292.800 212.107 C 292.800 213.265,303.667 203.566,305.831 200.477 C 306.830 199.051,306.418 199.426,301.800 204.147 M260.307 200.290 C 261.026 200.379,262.106 200.377,262.707 200.286 C 263.308 200.195,262.720 200.122,261.400 200.124 C 260.080 200.126,259.588 200.201,260.307 200.290 M114.200 202.815 C 115.520 202.979,117.770 203.104,119.200 203.094 L 121.800 203.074 119.000 202.787 C 117.460 202.629,115.210 202.503,114.000 202.508 L 111.800 202.518 114.200 202.815 M173.106 204.300 C 172.304 205.345,170.737 207.149,169.624 208.309 C 167.647 210.370,166.933 211.446,168.269 210.349 C 169.033 209.723,174.800 202.866,174.800 202.585 C 174.800 202.179,174.504 202.478,173.106 204.300 M126.505 203.487 C 127.114 203.579,128.014 203.577,128.505 203.482 C 128.997 203.387,128.500 203.311,127.400 203.314 C 126.300 203.317,125.897 203.395,126.505 203.487 M76.182 223.800 C 76.192 232.820,76.315 239.120,76.457 237.800 C 76.790 234.678,76.777 220.151,76.434 213.000 C 76.259 209.363,76.171 213.147,76.182 223.800 M165.854 211.855 C 165.223 212.397,164.773 212.906,164.854 212.986 C 164.934 213.066,165.516 212.688,166.146 212.145 C 166.777 211.603,167.227 211.094,167.146 211.014 C 167.066 210.934,166.484 211.312,165.854 211.855 M290.300 213.478 C 289.475 214.045,288.800 214.757,288.800 215.060 C 288.800 215.597,291.546 220.000,291.880 220.000 C 292.088 220.000,291.773 219.456,290.332 217.328 C 288.845 215.131,288.898 214.717,290.800 213.648 C 292.316 212.796,292.768 212.370,292.100 212.424 C 291.935 212.437,291.125 212.912,290.300 213.478 M162.800 214.449 C 161.406 215.671,161.405 215.672,162.688 214.819 C 163.396 214.348,164.082 213.791,164.212 213.581 C 164.597 212.957,164.277 213.154,162.800 214.449 M208.946 226.000 C 208.963 234.325,209.050 236.206,209.302 233.735 C 209.486 231.940,209.475 226.990,209.279 222.735 L 208.922 215.000 208.946 226.000 M158.084 217.466 C 157.140 218.035,156.448 218.581,156.547 218.680 C 156.724 218.857,160.000 216.833,160.000 216.547 C 160.000 216.321,159.917 216.360,158.084 217.466 M152.800 220.272 C 148.872 222.129,148.571 222.252,146.084 223.036 C 144.921 223.402,144.042 223.775,144.131 223.864 C 144.287 224.021,147.348 223.116,149.000 222.425 C 151.564 221.353,156.000 219.189,156.000 219.010 C 156.000 218.739,156.255 218.639,152.800 220.272 M141.600 224.418 C 141.162 224.715,141.324 224.752,142.200 224.556 C 143.671 224.227,143.990 223.998,142.967 224.006 C 142.545 224.009,141.930 224.195,141.600 224.418 M238.666 224.591 C 238.093 225.164,238.130 237.822,238.706 238.400 C 238.816 238.510,238.811 235.591,238.694 231.914 C 238.533 226.794,238.602 225.130,238.990 224.808 C 239.325 224.530,243.275 224.423,250.628 224.494 L 261.759 224.600 264.980 230.876 C 266.751 234.328,268.357 237.298,268.550 237.476 C 269.006 237.898,262.604 225.328,261.979 224.575 C 261.260 223.709,239.533 223.724,238.666 224.591 M138.000 225.200 C 137.236 225.694,138.058 225.694,139.600 225.200 L 140.600 224.880 139.600 224.846 C 139.050 224.827,138.330 224.987,138.000 225.200 M133.400 226.020 C 132.861 226.265,133.254 226.305,134.600 226.141 C 135.700 226.007,136.675 225.831,136.767 225.749 C 137.117 225.436,134.161 225.674,133.400 226.020 M114.800 226.788 L 105.800 227.000 105.763 230.200 L 105.726 233.400 105.963 230.400 L 106.200 227.400 118.713 227.153 C 125.595 227.018,131.340 226.793,131.480 226.653 C 131.619 226.514,129.948 226.440,127.767 226.488 C 125.585 226.537,119.750 226.672,114.800 226.788 M299.410 231.600 C 300.213 233.073,306.895 242.811,307.255 243.034 C 307.476 243.171,305.905 240.699,303.764 237.541 C 300.180 232.254,298.567 230.054,299.410 231.600 M106.173 243.800 C 106.173 249.080,106.230 251.185,106.299 248.477 C 106.368 245.769,106.368 241.449,106.299 238.877 C 106.229 236.305,106.172 238.520,106.173 243.800 M238.850 248.033 C 238.878 252.965,239.028 259.610,239.183 262.800 C 239.339 265.998,239.381 262.051,239.277 254.000 C 239.174 245.970,239.024 239.325,238.945 239.233 C 238.865 239.142,238.823 243.102,238.850 248.033 M208.486 244.038 C 208.439 246.149,208.319 249.839,208.221 252.238 L 208.041 256.600 208.426 253.000 C 208.638 251.020,208.758 247.330,208.692 244.800 L 208.572 240.200 208.486 244.038 M75.686 246.838 C 75.639 248.729,75.518 252.239,75.418 254.638 C 75.243 258.859,75.249 258.903,75.624 256.000 C 75.837 254.350,75.957 250.840,75.892 248.200 C 75.794 244.236,75.758 243.999,75.686 246.838 M310.054 247.292 C 311.014 248.772,311.950 249.987,312.134 249.992 C 312.318 249.996,311.793 249.055,310.967 247.900 C 308.647 244.654,308.111 244.297,310.054 247.292 M274.202 248.311 C 275.032 249.912,275.783 251.151,275.870 251.063 C 276.055 250.879,273.690 246.398,273.093 245.800 C 272.873 245.580,273.373 246.710,274.202 248.311 M276.656 252.788 C 277.042 253.441,277.411 253.923,277.475 253.859 C 277.688 253.645,276.606 251.606,276.277 251.603 C 276.100 251.601,276.270 252.134,276.656 252.788 M316.067 255.833 C 317.891 258.374,318.349 258.524,316.732 256.050 C 315.999 254.931,315.254 254.011,315.075 254.007 C 314.896 254.003,315.343 254.825,316.067 255.833 M106.553 259.000 C 106.553 261.640,106.618 262.668,106.697 261.284 C 106.775 259.901,106.774 257.741,106.695 256.484 C 106.616 255.228,106.552 256.360,106.553 259.000 M278.186 255.500 C 278.535 256.215,278.906 256.800,279.010 256.800 C 279.408 256.800,279.152 256.163,278.367 255.200 L 277.552 254.200 278.186 255.500 M279.282 257.400 C 280.200 259.241,284.126 266.000,284.277 266.000 C 284.382 266.000,283.792 264.785,282.965 263.300 C 282.138 261.815,281.116 259.970,280.693 259.200 C 280.003 257.943,278.766 256.364,279.282 257.400 M319.570 260.633 C 320.510 261.935,321.936 263.938,322.739 265.085 C 323.543 266.231,324.337 267.176,324.504 267.185 C 324.671 267.193,324.169 266.345,323.389 265.300 C 322.609 264.255,321.258 262.376,320.387 261.125 C 319.516 259.873,318.592 258.718,318.332 258.558 C 318.073 258.398,318.630 259.332,319.570 260.633 M207.483 267.950 C 207.309 271.772,207.246 274.979,207.343 275.076 C 207.637 275.370,208.070 267.208,207.930 264.000 C 207.839 261.895,207.705 263.074,207.483 267.950 M74.887 266.240 C 74.839 268.461,74.716 271.701,74.613 273.440 C 74.433 276.488,74.440 276.522,74.824 274.400 C 75.043 273.190,75.166 269.950,75.098 267.200 C 74.974 262.201,74.974 262.201,74.887 266.240 M285.000 267.600 C 285.341 268.260,285.711 268.800,285.821 268.800 C 285.931 268.800,285.741 268.260,285.400 267.600 C 285.059 266.940,284.689 266.400,284.579 266.400 C 284.469 266.400,284.659 266.940,285.000 267.600 M106.886 271.495 L 106.800 276.391 90.900 276.500 L 75.000 276.609 90.913 276.705 C 103.737 276.782,106.864 276.698,107.026 276.276 C 107.137 275.987,107.170 273.692,107.099 271.176 L 106.971 266.600 106.886 271.495 M286.586 270.300 C 286.935 271.015,287.306 271.600,287.410 271.600 C 287.808 271.600,287.552 270.963,286.767 270.000 L 285.952 269.000 286.586 270.300 M325.044 271.474 C 324.889 271.955,324.456 272.429,324.081 272.528 C 323.486 272.684,323.482 272.713,324.051 272.754 C 324.853 272.811,325.738 271.809,325.500 271.113 C 325.395 270.805,325.213 270.949,325.044 271.474 M239.672 274.095 L 239.600 276.391 223.700 276.500 L 207.800 276.609 223.713 276.705 C 241.493 276.811,240.154 277.056,239.896 273.749 L 239.744 271.800 239.672 274.095 M288.186 273.100 C 288.535 273.815,288.906 274.400,289.010 274.400 C 289.408 274.400,289.152 273.763,288.367 272.800 L 287.552 271.800 288.186 273.100 M318.200 274.400 C 317.908 274.873,318.299 274.873,319.400 274.400 C 320.171 274.069,320.169 274.055,319.324 274.028 C 318.842 274.013,318.336 274.180,318.200 274.400 M289.564 275.533 C 289.780 275.936,290.271 276.521,290.655 276.833 C 291.087 277.184,290.990 276.904,290.401 276.100 C 289.351 274.665,288.957 274.398,289.564 275.533 M315.200 275.218 C 314.762 275.515,314.924 275.552,315.800 275.356 C 317.271 275.027,317.590 274.798,316.567 274.806 C 316.145 274.809,315.530 274.995,315.200 275.218 M312.000 276.000 C 311.236 276.494,312.058 276.494,313.600 276.000 L 314.600 275.680 313.600 275.646 C 313.050 275.627,312.330 275.787,312.000 276.000 M308.800 276.800 C 308.036 277.294,308.858 277.294,310.400 276.800 L 311.400 276.480 310.400 276.446 C 309.850 276.427,309.130 276.587,308.800 276.800 M304.000 277.621 C 303.570 277.914,303.854 277.954,305.000 277.762 C 306.984 277.430,307.304 277.198,305.767 277.206 C 305.125 277.209,304.330 277.396,304.000 277.621 M298.200 278.400 L 297.000 278.705 298.200 278.730 C 298.860 278.743,300.120 278.605,301.000 278.423 L 302.600 278.092 301.000 278.093 C 300.120 278.094,298.860 278.232,298.200 278.400 " stroke="none" fill="#97cefc" fill-rule="evenodd"></path><path id="path4" d="M82.033 121.187 C 75.592 121.364,74.238 121.502,74.102 122.000 C 73.968 122.493,74.008 122.502,74.325 122.049 C 74.647 121.589,80.237 121.490,108.133 121.449 C 126.516 121.422,141.251 121.278,140.878 121.128 C 140.105 120.818,93.791 120.864,82.033 121.187 M215.011 121.100 C 210.837 121.165,207.290 121.349,207.130 121.509 C 206.970 121.669,212.275 121.664,218.919 121.497 C 225.564 121.330,240.777 121.240,252.726 121.297 C 264.676 121.354,274.036 121.283,273.526 121.140 C 272.630 120.888,230.417 120.859,215.011 121.100 M144.033 121.745 C 144.125 121.825,145.001 121.992,145.979 122.118 C 147.130 122.265,147.554 122.216,147.179 121.979 C 146.645 121.640,143.658 121.419,144.033 121.745 M276.833 121.745 C 276.925 121.825,277.801 121.992,278.779 122.118 C 279.930 122.265,280.354 122.216,279.979 121.979 C 279.445 121.640,276.458 121.419,276.833 121.745 M148.833 122.543 C 148.925 122.621,149.630 122.801,150.400 122.942 C 151.385 123.123,151.622 123.082,151.200 122.806 C 150.658 122.450,148.437 122.203,148.833 122.543 M282.033 122.543 C 282.125 122.621,282.830 122.801,283.600 122.942 C 284.585 123.123,284.822 123.082,284.400 122.806 C 283.858 122.450,281.637 122.203,282.033 122.543 M74.047 131.433 C 74.073 136.255,74.224 142.000,74.382 144.200 C 74.541 146.400,74.585 142.530,74.480 135.600 C 74.375 128.670,74.224 122.925,74.144 122.833 C 74.065 122.742,74.021 126.612,74.047 131.433 M206.847 139.033 C 206.873 143.855,207.025 149.600,207.185 151.800 C 207.346 154.000,207.390 150.130,207.283 143.200 C 207.177 136.270,207.024 130.525,206.945 130.433 C 206.865 130.342,206.821 134.212,206.847 139.033 M169.200 131.325 C 169.200 131.394,169.785 131.979,170.500 132.625 L 171.800 133.800 170.625 132.500 C 169.530 131.288,169.200 131.016,169.200 131.325 M305.600 134.200 C 306.795 135.410,307.863 136.400,307.973 136.400 C 308.083 136.400,307.195 135.410,306.000 134.200 C 304.805 132.990,303.737 132.000,303.627 132.000 C 303.517 132.000,304.405 132.990,305.600 134.200 M172.800 134.925 C 172.800 134.994,173.385 135.579,174.100 136.225 L 175.400 137.400 174.225 136.100 C 173.130 134.888,172.800 134.616,172.800 134.925 M310.206 139.712 C 310.592 140.324,311.009 140.724,311.132 140.601 C 311.255 140.478,310.939 139.978,310.430 139.489 L 309.504 138.600 310.206 139.712 M119.200 145.990 C 116.625 146.169,117.478 146.235,122.716 146.263 C 126.520 146.283,129.580 146.257,129.516 146.205 C 129.180 145.933,122.145 145.786,119.200 145.990 M252.000 146.000 L 248.600 146.251 251.800 146.278 C 253.560 146.293,255.540 146.168,256.200 146.000 C 257.669 145.626,257.063 145.626,252.000 146.000 M258.700 146.289 C 259.415 146.378,260.585 146.378,261.300 146.289 C 262.015 146.201,261.430 146.128,260.000 146.128 C 258.570 146.128,257.985 146.201,258.700 146.289 M108.400 146.757 C 107.417 147.030,107.400 147.105,107.377 151.217 L 107.354 155.400 107.490 151.328 L 107.627 147.257 109.714 146.876 C 110.996 146.642,111.337 146.492,110.600 146.487 C 109.940 146.483,108.950 146.605,108.400 146.757 M131.600 146.782 C 131.930 147.005,132.545 147.191,132.967 147.194 C 133.990 147.202,133.671 146.973,132.200 146.644 C 131.324 146.448,131.162 146.485,131.600 146.782 M240.800 146.800 C 239.396 147.250,240.863 147.265,243.000 146.823 L 244.600 146.492 243.200 146.486 C 242.430 146.483,241.350 146.624,240.800 146.800 M264.000 146.782 C 264.330 147.005,264.945 147.191,265.367 147.194 C 266.390 147.202,266.071 146.973,264.600 146.644 C 263.724 146.448,263.562 146.485,264.000 146.782 M137.009 148.313 C 137.647 148.859,139.670 149.637,139.426 149.242 C 139.303 149.042,138.620 148.676,137.910 148.429 C 137.199 148.181,136.794 148.129,137.009 148.313 M269.295 148.220 C 269.458 148.387,270.358 148.867,271.295 149.285 C 272.233 149.704,272.820 149.865,272.600 149.644 C 272.380 149.423,271.480 148.943,270.600 148.579 C 269.720 148.214,269.133 148.053,269.295 148.220 M276.401 152.600 C 276.951 153.260,277.445 153.875,277.500 153.967 C 277.555 154.058,277.688 154.045,277.796 153.938 C 277.904 153.830,277.409 153.215,276.697 152.571 L 275.403 151.400 276.401 152.600 M316.268 153.400 C 316.571 155.377,316.802 155.714,316.794 154.167 C 316.791 153.525,316.616 152.730,316.405 152.400 C 316.145 151.991,316.101 152.310,316.268 153.400 M183.693 156.800 C 183.693 157.570,183.775 157.885,183.876 157.500 C 183.976 157.115,183.976 156.485,183.876 156.100 C 183.775 155.715,183.693 156.030,183.693 156.800 M317.314 159.000 C 317.317 160.100,317.395 160.503,317.487 159.895 C 317.579 159.286,317.577 158.386,317.482 157.895 C 317.387 157.403,317.311 157.900,317.314 159.000 M184.564 167.000 C 184.563 170.740,184.623 172.324,184.697 170.520 C 184.771 168.715,184.772 165.655,184.698 163.720 C 184.625 161.784,184.564 163.260,184.564 167.000 M317.709 162.800 C 317.709 163.790,317.787 164.195,317.882 163.700 C 317.978 163.205,317.978 162.395,317.882 161.900 C 317.787 161.405,317.709 161.810,317.709 162.800 M149.473 164.400 C 149.604 165.390,149.776 166.275,149.856 166.367 C 150.157 166.714,149.928 164.164,149.590 163.400 C 149.353 162.866,149.314 163.198,149.473 164.400 M282.493 165.600 C 282.493 166.370,282.575 166.685,282.676 166.300 C 282.776 165.915,282.776 165.285,282.676 164.900 C 282.575 164.515,282.493 164.830,282.493 165.600 M150.140 171.600 C 150.140 173.470,150.209 174.235,150.293 173.300 C 150.377 172.365,150.377 170.835,150.293 169.900 C 150.209 168.965,150.140 169.730,150.140 171.600 M317.693 171.600 C 317.693 172.370,317.775 172.685,317.876 172.300 C 317.976 171.915,317.976 171.285,317.876 170.900 C 317.775 170.515,317.693 170.830,317.693 171.600 M74.842 178.233 C 74.866 182.395,75.022 187.420,75.189 189.400 C 75.364 191.458,75.408 188.287,75.293 182.000 C 75.182 175.950,75.026 170.925,74.946 170.833 C 74.866 170.742,74.819 174.072,74.842 178.233 M317.309 174.800 C 317.309 175.790,317.387 176.195,317.482 175.700 C 317.578 175.205,317.578 174.395,317.482 173.900 C 317.387 173.405,317.309 173.810,317.309 174.800 M207.647 183.033 C 207.673 187.855,207.825 193.600,207.985 195.800 C 208.146 198.000,208.190 194.130,208.083 187.200 C 207.977 180.270,207.824 174.525,207.745 174.433 C 207.665 174.342,207.621 178.212,207.647 183.033 M282.459 176.200 C 282.420 176.860,282.296 177.850,282.183 178.400 L 281.977 179.400 282.408 178.414 C 282.644 177.872,282.768 176.882,282.683 176.214 L 282.528 175.000 282.459 176.200 M239.774 187.000 C 239.775 192.720,239.831 195.004,239.899 192.076 C 239.968 189.148,239.967 184.468,239.899 181.676 C 239.830 178.884,239.774 181.280,239.774 187.000 M149.654 178.000 C 149.619 178.550,149.496 179.450,149.383 180.000 L 149.177 181.000 149.607 180.015 C 149.843 179.474,149.965 178.574,149.878 178.015 L 149.720 177.000 149.654 178.000 M183.709 178.800 C 183.709 179.790,183.787 180.195,183.882 179.700 C 183.978 179.205,183.978 178.395,183.882 177.900 C 183.787 177.405,183.709 177.810,183.709 178.800 M316.446 179.267 C 316.421 179.634,316.296 180.264,316.170 180.667 C 315.952 181.362,315.963 181.363,316.397 180.687 C 316.648 180.296,316.773 179.666,316.673 179.287 C 316.511 178.668,316.488 178.666,316.446 179.267 M148.846 182.067 C 148.821 182.434,148.696 183.064,148.570 183.467 C 148.352 184.162,148.363 184.163,148.797 183.487 C 149.048 183.096,149.173 182.466,149.073 182.087 C 148.911 181.468,148.888 181.466,148.846 182.067 M182.046 186.867 C 182.021 187.234,181.896 187.864,181.770 188.267 C 181.552 188.962,181.563 188.963,181.997 188.287 C 182.248 187.896,182.373 187.266,182.273 186.887 C 182.111 186.268,182.088 186.266,182.046 186.867 M106.984 195.700 L 107.000 201.800 108.200 201.858 C 109.320 201.912,109.327 201.903,108.310 201.732 L 107.221 201.549 107.094 195.574 L 106.968 189.599 106.984 195.700 M275.077 192.253 C 274.019 193.262,273.220 194.154,273.301 194.234 C 273.382 194.315,274.331 193.486,275.409 192.391 C 277.868 189.895,277.646 189.803,275.077 192.253 M239.965 198.526 C 240.144 198.705,241.081 198.791,242.046 198.718 L 243.800 198.585 241.719 198.393 C 240.575 198.287,239.785 198.347,239.965 198.526 M264.800 198.896 C 264.250 199.141,262.630 199.461,261.200 199.608 L 258.600 199.874 260.851 199.937 C 262.815 199.992,266.000 199.162,266.000 198.595 C 266.000 198.357,266.026 198.350,264.800 198.896 M246.112 199.095 C 247.164 199.177,248.784 199.176,249.712 199.092 C 250.640 199.008,249.780 198.941,247.800 198.942 C 245.820 198.943,245.060 199.012,246.112 199.095 M255.300 199.487 C 255.905 199.578,256.895 199.578,257.500 199.487 C 258.105 199.395,257.610 199.320,256.400 199.320 C 255.190 199.320,254.695 199.395,255.300 199.487 M131.291 201.683 C 130.130 202.140,129.253 202.586,129.341 202.674 C 129.537 202.870,132.855 201.610,133.380 201.140 C 133.895 200.680,133.726 200.723,131.291 201.683 M113.500 202.295 C 114.655 202.376,116.545 202.376,117.700 202.295 C 118.855 202.214,117.910 202.148,115.600 202.148 C 113.290 202.148,112.345 202.214,113.500 202.295 M120.705 202.683 C 121.202 202.779,121.922 202.775,122.305 202.675 C 122.687 202.575,122.280 202.496,121.400 202.501 C 120.520 202.505,120.207 202.587,120.705 202.683 M126.105 203.087 C 126.714 203.179,127.614 203.177,128.105 203.082 C 128.597 202.987,128.100 202.911,127.000 202.914 C 125.900 202.917,125.497 202.995,126.105 203.087 M301.785 205.300 L 299.800 207.400 301.900 205.415 C 303.851 203.571,304.183 203.200,303.885 203.200 C 303.822 203.200,302.877 204.145,301.785 205.300 M170.181 208.500 L 168.600 210.200 170.300 208.619 C 171.881 207.148,172.184 206.800,171.881 206.800 C 171.816 206.800,171.051 207.565,170.181 208.500 M166.975 211.700 L 165.800 213.000 167.100 211.825 C 168.312 210.730,168.584 210.400,168.275 210.400 C 168.206 210.400,167.621 210.985,166.975 211.700 M161.978 215.527 C 161.196 216.117,160.116 216.923,159.578 217.317 C 158.638 218.007,158.651 218.007,159.930 217.317 C 161.195 216.636,164.024 214.420,163.600 214.444 C 163.490 214.450,162.760 214.937,161.978 215.527 M75.733 225.800 C 75.728 231.960,75.835 235.560,75.970 233.800 C 76.105 232.040,76.109 227.000,75.979 222.600 C 75.743 214.630,75.742 214.642,75.733 225.800 M157.100 218.629 C 155.605 219.440,155.696 219.778,157.200 219.000 C 157.860 218.659,158.400 218.294,158.400 218.190 C 158.400 217.932,158.357 217.947,157.100 218.629 M208.560 228.200 C 208.561 231.500,208.622 232.797,208.698 231.082 C 208.773 229.367,208.772 226.667,208.697 225.082 C 208.621 223.497,208.559 224.900,208.560 228.200 M238.967 225.342 C 238.852 225.640,238.823 227.035,238.902 228.442 L 239.046 231.000 239.123 228.100 L 239.200 225.200 250.320 225.200 C 258.650 225.200,261.581 225.325,262.001 225.700 C 262.478 226.125,262.482 226.096,262.032 225.500 C 261.321 224.560,239.325 224.410,238.967 225.342 M134.400 226.400 L 133.400 226.720 134.476 226.760 C 135.068 226.782,135.664 226.620,135.800 226.400 C 136.081 225.945,135.820 225.945,134.400 226.400 M117.400 227.200 L 106.200 227.419 117.400 227.470 C 123.560 227.497,129.050 227.376,129.600 227.200 L 130.600 226.880 129.600 226.930 C 129.050 226.958,123.560 227.080,117.400 227.200 M307.037 242.200 C 307.397 242.750,307.757 243.200,307.837 243.200 C 307.917 243.200,307.778 242.750,307.527 242.200 C 307.277 241.650,306.916 241.200,306.727 241.200 C 306.537 241.200,306.676 241.650,307.037 242.200 M106.698 249.800 C 106.811 253.760,106.970 257.075,107.052 257.167 C 107.311 257.458,107.113 248.312,106.797 245.400 C 106.618 243.749,106.577 245.556,106.698 249.800 M207.871 245.602 C 207.726 246.811,207.632 249.330,207.662 251.200 C 207.712 254.341,207.742 254.204,208.052 249.400 C 208.408 243.901,208.313 241.918,207.871 245.602 M272.200 245.600 C 272.541 246.260,272.911 246.800,273.021 246.800 C 273.131 246.800,272.941 246.260,272.600 245.600 C 272.259 244.940,271.889 244.400,271.779 244.400 C 271.669 244.400,271.859 244.940,272.200 245.600 M239.337 249.000 C 239.339 250.760,239.409 251.430,239.493 250.489 C 239.578 249.549,239.577 248.109,239.491 247.289 C 239.405 246.470,239.336 247.240,239.337 249.000 M75.081 248.156 C 74.927 249.232,74.825 251.392,74.856 252.956 C 74.909 255.660,74.929 255.593,75.261 251.600 C 75.640 247.042,75.534 245.009,75.081 248.156 M239.754 257.600 C 239.754 260.350,239.818 261.475,239.896 260.100 C 239.974 258.725,239.974 256.475,239.896 255.100 C 239.818 253.725,239.754 254.850,239.754 257.600 M318.208 257.958 C 319.014 259.080,319.851 260.108,320.066 260.241 C 320.282 260.374,319.799 259.565,318.992 258.442 C 318.186 257.320,317.349 256.292,317.134 256.159 C 316.918 256.026,317.401 256.835,318.208 257.958 M207.071 264.402 C 206.926 265.611,206.831 268.040,206.861 269.800 C 206.910 272.687,206.948 272.511,207.255 268.000 C 207.614 262.705,207.513 260.720,207.071 264.402 M322.493 264.000 C 322.768 264.440,323.131 264.800,323.300 264.800 C 323.469 264.800,323.382 264.440,323.107 264.000 C 322.832 263.560,322.469 263.200,322.300 263.200 C 322.131 263.200,322.218 263.560,322.493 264.000 M74.281 267.559 C 74.126 268.966,74.026 271.486,74.057 273.159 C 74.107 275.780,74.162 275.510,74.460 271.200 C 74.837 265.727,74.727 263.492,74.281 267.559 M283.215 265.400 C 283.217 265.620,283.586 266.250,284.036 266.800 C 284.579 267.464,284.715 267.531,284.440 267.000 C 283.766 265.695,283.212 264.972,283.215 265.400 M107.314 274.600 C 107.317 275.700,107.395 276.103,107.487 275.495 C 107.579 274.886,107.577 273.986,107.482 273.495 C 107.387 273.003,107.311 273.500,107.314 274.600 M309.200 277.200 C 308.376 277.464,308.341 277.526,309.000 277.554 C 309.440 277.573,310.070 277.413,310.400 277.200 C 311.101 276.747,310.614 276.747,309.200 277.200 M291.600 278.200 C 292.345 278.750,293.055 279.199,293.178 279.198 C 293.555 279.195,291.024 277.230,290.622 277.214 C 290.415 277.206,290.855 277.650,291.600 278.200 M304.800 278.000 L 303.800 278.320 304.876 278.360 C 305.468 278.382,306.064 278.220,306.200 278.000 C 306.481 277.545,306.220 277.545,304.800 278.000 M299.800 278.800 L 298.200 279.086 299.600 279.137 C 300.370 279.165,301.270 279.013,301.600 278.800 C 302.255 278.377,302.162 278.377,299.800 278.800 " stroke="none" fill="#39a4fc" fill-rule="evenodd"></path></g></svg>